<svg width="36" height="36" viewBox="0 0 36 36" fill="none" xmlns="http://www.w3.org/2000/svg">
<path d="M17.5007 35.0014C27.1661 35.0014 35.0014 27.1661 35.0014 17.5007C35.0014 7.83533 27.1661 0 17.5007 0C7.83533 0 0 7.83533 0 17.5007C0 27.1661 7.83533 35.0014 17.5007 35.0014Z" fill="#D2D1D1"/>
<path d="M17.5007 28.6371C11.3494 28.6371 6.36428 23.652 6.36428 17.5007C6.36428 11.3494 11.3494 6.36428 17.5007 6.36428C20.575 6.36428 23.3587 7.6109 25.3753 9.62609L29.8753 5.12611C26.708 1.95878 22.3321 0 17.5007 0C7.83513 0 0 7.83513 0 17.5007C0 27.1663 7.83513 35.0014 17.5007 35.0014C22.3335 35.0014 26.708 33.0426 29.8767 29.8767L25.3767 25.3767C23.3587 27.3905 20.575 28.6371 17.5007 28.6371Z" fill="#F2F2F2"/>
<path d="M28.637 17.5008H23.0681C23.0681 14.4265 20.5748 11.9319 17.4992 11.9319C14.4235 11.9319 11.9316 14.4251 11.9316 17.5008C11.9316 18.9984 12.5239 20.3565 13.4871 21.3591L13.4829 21.3634L20.3774 28.2579L20.3788 28.2593C25.134 26.9901 28.637 22.6551 28.637 17.5008Z" fill="#BEBEBE"/>
<path d="M35 17.5007H28.6357C28.6357 22.6551 25.1313 26.99 20.3789 28.2592L25.2935 33.1738C31.0471 30.3068 35 24.3656 35 17.5007Z" fill="#BEBEBE"/>
<path d="M17.5007 34.8012C7.86897 34.8012 0.0564084 27.0197 0.00141022 17.4006C0.00141022 17.4345 0 17.4669 0 17.5008C0 27.1663 7.83513 35.0015 17.5007 35.0015C27.1663 35.0015 35.0014 27.1663 35.0014 17.5008C35.0014 17.4669 35 17.4345 35 17.4006C34.945 27.0197 27.131 34.8012 17.5007 34.8012Z" fill="#212121" fill-opacity="0.1"/>
<path d="M20.3804 28.2592L20.5355 28.4143C25.2089 27.0944 28.6371 22.7989 28.6371 17.6996V17.5007C28.6371 22.655 25.1328 26.99 20.3804 28.2592Z" fill="white" fill-opacity="0.05"/>
<path d="M31.8194 15.9094H17.5001C16.6216 15.9094 15.9094 16.6216 15.9094 17.5001C15.9094 18.3787 16.6216 19.0909 17.5001 19.0909H31.818C32.6966 19.0909 33.4087 18.3787 33.4087 17.5001C33.4101 16.6216 32.698 15.9094 31.8194 15.9094Z" fill="#F3F3F3"/>
<path opacity="0.5" d="M31.8194 15.9094H17.5001C16.6216 15.9094 15.9094 16.6216 15.9094 17.5001C15.9094 18.3787 16.6216 19.0909 17.5001 19.0909H31.818C32.6966 19.0909 33.4087 18.3787 33.4087 17.5001C33.4101 16.6216 32.698 15.9094 31.8194 15.9094Z" fill="#F3F3F3"/>
<path d="M3.18156 18.6938C3.84046 18.6938 4.3746 18.1597 4.3746 17.5008C4.3746 16.8419 3.84046 16.3077 3.18156 16.3077C2.52267 16.3077 1.98853 16.8419 1.98853 17.5008C1.98853 18.1597 2.52267 18.6938 3.18156 18.6938Z" fill="white"/>
<path d="M17.5009 4.37448C18.1598 4.37448 18.6939 3.84034 18.6939 3.18144C18.6939 2.52254 18.1598 1.9884 17.5009 1.9884C16.842 1.9884 16.3079 2.52254 16.3079 3.18144C16.3079 3.84034 16.842 4.37448 17.5009 4.37448Z" fill="white"/>
<path d="M17.5009 33.0116C18.1598 33.0116 18.6939 32.4774 18.6939 31.8185C18.6939 31.1596 18.1598 30.6255 17.5009 30.6255C16.842 30.6255 16.3079 31.1596 16.3079 31.8185C16.3079 32.4774 16.842 33.0116 17.5009 33.0116Z" fill="white"/>
<path d="M7.35857 8.56845C8.01746 8.56845 8.5516 8.03431 8.5516 7.37541C8.5516 6.71651 8.01746 6.18237 7.35857 6.18237C6.69967 6.18237 6.16553 6.71651 6.16553 7.37541C6.16553 8.03431 6.69967 8.56845 7.35857 8.56845Z" fill="white"/>
<path d="M7.35857 28.8359C8.01746 28.8359 8.5516 28.3018 8.5516 27.6429C8.5516 26.984 8.01746 26.4498 7.35857 26.4498C6.69967 26.4498 6.16553 26.984 6.16553 27.6429C6.16553 28.3018 6.69967 28.8359 7.35857 28.8359Z" fill="white"/>
<path d="M27.6427 28.8359C28.3016 28.8359 28.8358 28.3018 28.8358 27.6429C28.8358 26.984 28.3016 26.4498 27.6427 26.4498C26.9838 26.4498 26.4497 26.984 26.4497 27.6429C26.4497 28.3018 26.9838 28.8359 27.6427 28.8359Z" fill="#CECECE"/>
<path d="M17.5004 16.1089H31.8182C32.663 16.1089 33.354 16.7689 33.4033 17.6009C33.4047 17.567 33.409 17.5346 33.409 17.5008C33.409 16.6222 32.6968 15.91 31.8182 15.91H17.5004C16.6218 15.91 15.9097 16.6222 15.9097 17.5008C15.9097 17.5346 15.9111 17.567 15.9153 17.6009C15.9647 16.7689 16.6543 16.1089 17.5004 16.1089Z" fill="white" fill-opacity="0.2"/>
<path d="M33.4033 17.5995C33.3511 18.4301 32.6616 19.0915 31.8182 19.0915H17.5004C16.6557 19.0915 15.9647 18.4315 15.9153 17.5995C15.9111 17.6333 15.9097 17.6658 15.9097 17.6982C15.9097 18.5768 16.6218 19.2889 17.5004 19.2889H31.8182C32.6968 19.2889 33.409 18.5768 33.409 17.6982C33.409 17.6658 33.4076 17.6333 33.4033 17.5995Z" fill="#212121" fill-opacity="0.2"/>
<path d="M17.5009 6.56317C20.5752 6.56317 23.3589 7.8098 25.3755 9.82499L29.9728 5.22488C29.939 5.19104 29.9065 5.15719 29.8741 5.12476L25.3755 9.62474C23.3589 7.60955 20.5752 6.36292 17.5009 6.36292C11.3496 6.36292 6.3645 11.348 6.3645 17.4994C6.3645 17.5332 6.36591 17.5656 6.36591 17.5995C6.4195 11.4947 11.3834 6.56317 17.5009 6.56317Z" fill="#212121" fill-opacity="0.1"/>
<path d="M17.5007 35.0014C27.1661 35.0014 35.0014 27.1661 35.0014 17.5007C35.0014 7.83533 27.1661 0 17.5007 0C7.83533 0 0 7.83533 0 17.5007C0 27.1661 7.83533 35.0014 17.5007 35.0014Z" fill="url(#paint0_radial)"/>
<defs>
<radialGradient id="paint0_radial" cx="0" cy="0" r="1" gradientUnits="userSpaceOnUse" gradientTransform="translate(5.13219 5.09234) scale(34.941)">
<stop stop-color="white" stop-opacity="0.1"/>
<stop offset="1" stop-color="white" stop-opacity="0"/>
</radialGradient>
</defs>
</svg>
